# Blender v2.81 (sub 16) OBJ File: ''
# www.blender.org
mtllib box_edited2.mtl
o box
v -0.250000 0.300000 -0.250000
v -0.250000 0.000000 -0.250000
v -0.250000 0.000000 0.250000
v -0.250000 0.000000 0.250000
v -0.250000 0.300000 0.250000
v -0.250000 0.300000 -0.250000
v -0.250000 0.300000 0.250000
v -0.250000 0.000000 0.250000
v 0.250000 0.000000 0.250000
v 0.250000 0.000000 0.250000
v 0.250000 0.300000 0.250000
v -0.250000 0.300000 0.250000
v 0.250000 0.000000 -0.250000
v 0.250000 0.000000 0.250000
v -0.250000 0.000000 0.250000
v -0.250000 0.000000 0.250000
v -0.250000 0.000000 -0.250000
v 0.250000 0.000000 -0.250000
v 0.250000 0.300000 -0.250000
v -0.250000 0.300000 -0.250000
v -0.200000 0.300000 -0.200000
v -0.250000 0.300000 -0.250000
v -0.250000 0.300000 0.250000
v -0.200000 0.300000 0.200000
v 0.250000 0.300000 0.250000
v 0.200000 0.300000 0.200000
v -0.200000 0.300000 0.200000
v 0.250000 0.300000 -0.250000
v 0.200000 0.300000 -0.200000
v 0.200000 0.300000 0.200000
v -0.200000 0.300000 0.200000
v -0.200000 0.300000 -0.200000
v -0.250000 0.300000 -0.250000
v 0.200000 0.300000 0.200000
v 0.250000 0.300000 0.250000
v 0.250000 0.300000 -0.250000
v -0.200000 0.300000 0.200000
v -0.250000 0.300000 0.250000
v 0.250000 0.300000 0.250000
v -0.200000 0.300000 -0.200000
v 0.200000 0.300000 -0.200000
v 0.250000 0.300000 -0.250000
v 0.250000 0.300000 -0.250000
v 0.250000 0.000000 -0.250000
v -0.250000 0.000000 -0.250000
v -0.250000 0.000000 -0.250000
v -0.250000 0.300000 -0.250000
v 0.250000 0.300000 -0.250000
v -0.200000 0.300000 0.200000
v -0.200000 0.050000 0.200000
v -0.200000 0.050000 -0.200000
v -0.200000 0.050000 -0.200000
v -0.200000 0.300000 -0.200000
v -0.200000 0.300000 0.200000
v 0.200000 0.300000 0.200000
v 0.200000 0.050000 0.200000
v -0.200000 0.050000 0.200000
v -0.200000 0.050000 0.200000
v -0.200000 0.300000 0.200000
v 0.200000 0.300000 0.200000
v -0.200000 0.050000 -0.200000
v -0.200000 0.050000 0.200000
v 0.200000 0.050000 0.200000
v 0.200000 0.050000 0.200000
v 0.200000 0.050000 -0.200000
v -0.200000 0.050000 -0.200000
v -0.200000 0.300000 -0.200000
v -0.200000 0.050000 -0.200000
v 0.200000 0.050000 -0.200000
v 0.200000 0.050000 -0.200000
v 0.200000 0.300000 -0.200000
v -0.200000 0.300000 -0.200000
v 0.200000 0.300000 -0.200000
v 0.200000 0.050000 -0.200000
v 0.200000 0.050000 0.200000
v 0.200000 0.050000 0.200000
v 0.200000 0.300000 0.200000
v 0.200000 0.300000 -0.200000
v 0.250000 0.300000 0.250000
v 0.250000 0.000000 0.250000
v 0.250000 0.000000 -0.250000
v 0.250000 0.000000 -0.250000
v 0.250000 0.300000 -0.250000
v 0.250000 0.300000 0.250000
vn -1.0000 0.0000 0.0000
vn 0.0000 0.0000 1.0000
vn 0.0000 -1.0000 -0.0000
vn 0.0000 1.0000 -0.0000
vn 0.0000 0.0000 -1.0000
vn 1.0000 0.0000 0.0000
usemtl DefaultMaterial
s 1
f 1//1 2//1 3//1
f 4//1 5//1 6//1
f 7//2 8//2 9//2
f 10//2 11//2 12//2
f 13//3 14//3 15//3
f 16//3 17//3 18//3
f 19//4 20//4 21//4
f 22//4 23//4 24//4
f 25//4 26//4 27//4
f 28//4 29//4 30//4
f 31//4 32//4 33//4
f 34//4 35//4 36//4
f 37//4 38//4 39//4
f 40//4 41//4 42//4
f 43//5 44//5 45//5
f 46//5 47//5 48//5
f 49//6 50//6 51//6
f 52//6 53//6 54//6
f 55//5 56//5 57//5
f 58//5 59//5 60//5
f 61//4 62//4 63//4
f 64//4 65//4 66//4
f 67//2 68//2 69//2
f 70//2 71//2 72//2
f 73//1 74//1 75//1
f 76//1 77//1 78//1
f 79//6 80//6 81//6
f 82//6 83//6 84//6
